<svg id="Layer_1" data-name="Layer 1" xmlns="http://www.w3.org/2000/svg" viewBox="0 0 306 303">
  <g id="black-white">
    <g id="three">
      <path d="M101.77,73a21.49,21.49,0,0,0-8-11.73c-4.52-3.37-11.15-4.19-12-4.19H21.29c-.8,0-7.43.82-12,4.19A21.49,21.49,0,0,0,1.29,73a46.72,46.72,0,0,0-.8,7.55V159c0,4.86,4,8.8,10,8.8,5.77,0,10.46-3.72,10.73-8.38h0V80.62H26.8V256.2c0,4.86,4.81,8.8,10.75,8.8s10.76-3.94,10.76-8.8V153.51h6.38V256.2c0,4.86,4.81,8.8,10.76,8.8s10.75-3.94,10.75-8.8V80.58h5.58v78.8h0c.27,4.66,5,8.38,10.73,8.38,5.94,0,10-3.94,10-8.8V80.58A47,47,0,0,0,101.77,73Z" fill="#ebdcdc"/>
      <ellipse cx="50.77" cy="31.12" rx="19.13" ry="20.12" fill="#ebdcdc"/>
    </g>
    <g id="two">
      <path d="M200.63,72.36c-1.06-4.46-4.49-9.67-9.37-13.12-5.32-3.76-13.13-4.69-14.07-4.69H106c-.94,0-8.75.93-14.07,4.69C87,62.69,83.57,67.9,82.51,72.36a48.79,48.79,0,0,0-.94,8.44v87.63c0,5.44,4.73,9.84,11.72,9.84,6.79,0,12.31-4.15,12.62-9.37h0V80.8h6.56V277.21c0,5.43,5.66,9.84,12.65,9.84s12.66-4.41,12.66-9.84V162.34h7.5V277.16c0,5.43,5.67,9.84,12.66,9.84s12.65-4.41,12.65-9.84V80.8h6.56v88.1h0c.31,5.22,5.83,9.37,12.62,9.37,7,0,11.72-4.4,11.72-9.84V80.8A48.8,48.8,0,0,0,200.63,72.36Z" fill="#ebdcdc"/>
      <circle cx="140.63" cy="25.5" r="22.5" fill="#ebdcdc"/>
    </g>
    <g id="first">
      <path d="M304.57,74c-1.14-4.76-4.79-10.32-10-14-5.67-4-14-5-15-5h-76c-1,0-9.33,1-15,5-5.21,3.68-8.86,9.24-10,14a52.43,52.43,0,0,0-1,9v93.5c0,5.8,5,10.5,12.5,10.5,7.24,0,13.13-4.43,13.47-10h0V83h7V292.5c0,5.8,6,10.5,13.5,10.5s13.5-4.7,13.5-10.5V170h8V292.5c0,5.8,6,10.5,13.5,10.5s13.5-4.7,13.5-10.5V83h7v94h0c.34,5.57,6.23,10,13.47,10,7.46,0,12.5-4.7,12.5-10.5V83A52.35,52.35,0,0,0,304.57,74Z" fill="#ebdcdc"/>
      <circle cx="240.57" cy="24" r="24" fill="#ebdcdc"/>
    </g>
  </g>
</svg>
